<?xml version="1.0" encoding="utf-8"?>
<!-- Generator: Adobe Illustrator 25.2.3, SVG Export Plug-In . SVG Version: 6.00 Build 0)  -->
<svg version="1.1" id="Layer_1" xmlns="http://www.w3.org/2000/svg" xmlns:xlink="http://www.w3.org/1999/xlink" x="0px" y="0px"
	 viewBox="0 0 180 40" style="enable-background:new 0 0 180 40;" xml:space="preserve">
<style type="text/css">
	.st0{stroke:#000000;stroke-miterlimit:10;}
	.st1{fill:#3669B0;}
	.st2{fill:#2FA736;}
	.st3{fill:#E22A3C;}
	.st4{fill:#FFEB34;}
	.st5{fill:#77C8D8;}
	.st6{fill:#F39519;}
	.st7{fill:#FFFFFF;}
	.st8{fill:#E22A3C;stroke:#E22A3C;stroke-miterlimit:10;}
</style>
<path class="st0" d="M72.8,11.1c0.5,0.3,0.8,0.7,0.9,1.2c0.1,0.6-0.1,1-0.4,1.5c-0.3,0.3-0.6,0.6-1,0.6c-0.4,0-0.8,0-1.3-0.3
	c-0.5-0.3-0.9-0.4-1.5-0.5c-0.5-0.1-1.1-0.2-1.6-0.2c-1.1,0-2,0.2-2.9,0.5c-0.8,0.3-1.5,0.8-2.1,1.4c-0.6,0.6-1,1.3-1.3,2.2
	c-0.3,0.8-0.4,1.8-0.4,2.8c0,1.2,0.2,2.3,0.5,3.1c0.3,0.8,0.8,1.6,1.4,2.2s1.3,1,2.2,1.3c0.8,0.3,1.7,0.4,2.7,0.4
	c0.5,0,1.1-0.1,1.6-0.2s1-0.3,1.5-0.5c0.4-0.2,0.8-0.3,1.3-0.2c0.4,0.1,0.8,0.3,1,0.6c0.4,0.5,0.5,1,0.4,1.5
	c-0.1,0.5-0.4,0.9-0.9,1.1c-0.5,0.3-1,0.5-1.6,0.7c-0.5,0.2-1.1,0.3-1.6,0.4C69.1,30.9,68.6,31,68,31c-1.4,0-2.8-0.3-4-0.7
	c-1.3-0.4-2.4-1.1-3.4-2c-1-0.8-1.8-2-2.4-3.3c-0.6-1.3-0.8-2.9-0.8-4.6c0-1.5,0.3-2.9,0.8-4.2c0.4-1.3,1.2-2.4,2.2-3.4
	c0.9-0.9,2.1-1.7,3.4-2.2c1.3-0.5,2.7-0.8,4.2-0.8c0.8,0,1.7,0.1,2.5,0.3C71.3,10.3,72,10.7,72.8,11.1z"/>
<path class="st0" d="M116.5,20c-0.3-0.3-0.8-0.5-1.3-0.5h-4.8c-0.5,0-0.9,0.2-1.3,0.5c-0.3,0.3-0.5,0.8-0.5,1.3s0.2,0.9,0.5,1.3
	c0.3,0.3,0.8,0.5,1.3,0.5h2.8v3.8c-0.4,0.2-0.8,0.3-1.4,0.3c-0.7,0.1-1.3,0.2-1.9,0.2c-1.3,0-2.4-0.3-3.4-0.9
	c-1-0.7-1.9-1.5-2.5-2.5c-0.6-1.1-0.9-2.3-0.9-3.5c0-1.3,0.3-2.4,0.9-3.5c0.6-1.1,1.4-1.9,2.5-2.5c1-0.7,2.2-0.9,3.4-0.9
	c0.6,0,1.2,0.1,1.7,0.2c0.5,0.1,1.1,0.3,1.5,0.5c0.2,0.1,0.3,0.2,0.5,0.2s0.3,0.1,0.5,0.1c0.5,0,0.9-0.2,1.2-0.6
	c0.3-0.3,0.5-0.8,0.5-1.3c0-0.3-0.1-0.5-0.3-0.8c-0.2-0.3-0.3-0.5-0.7-0.6c-0.8-0.4-1.5-0.7-2.4-0.8s-1.8-0.3-2.7-0.3
	c-1.5,0-2.9,0.3-4.1,0.8c-1.3,0.5-2.4,1.3-3.4,2.3c-1,0.9-1.8,2.1-2.3,3.4c-0.6,1.3-0.8,2.6-0.8,4.1c0,1.4,0.3,2.9,0.8,4.1
	c0.6,1.3,1.3,2.4,2.3,3.4c1,0.9,2.1,1.7,3.4,2.3c1.3,0.5,2.7,0.8,4.1,0.8c1.2,0,2.3-0.2,3.4-0.5c1.1-0.3,2-0.8,2.9-1.3
	c0.3-0.2,0.4-0.3,0.6-0.6c0.2-0.3,0.3-0.6,0.3-0.9v-6.2C117,20.7,116.9,20.3,116.5,20z"/>
<path class="st0" d="M159.6,10.8c-0.3-0.3-0.8-0.5-1.3-0.5c-0.6,0-1.1,0.3-1.4,0.8l-6.6,9.8L144,11c-0.2-0.3-0.4-0.4-0.7-0.6
	c-0.3-0.2-0.6-0.3-0.8-0.3c-0.5,0-0.9,0.2-1.3,0.5c-0.3,0.3-0.5,0.8-0.5,1.3v16.9c0,0.5,0.2,0.9,0.5,1.3c0.3,0.3,0.7,0.5,1.2,0.5
	c0.5,0,0.9-0.2,1.3-0.5c0.3-0.3,0.5-0.8,0.5-1.3V16.9l4.8,7.7c0.2,0.3,0.4,0.4,0.7,0.6c0.3,0.2,0.5,0.3,0.8,0.2
	c0.3,0,0.5-0.1,0.8-0.2c0.3-0.2,0.5-0.3,0.7-0.6l4.8-7.3V29c0,0.5,0.2,0.9,0.5,1.3c0.3,0.3,0.8,0.5,1.3,0.5c0.5,0,1-0.2,1.3-0.5
	c0.3-0.3,0.5-0.8,0.5-1.3V12C160.1,11.5,160,11.1,159.6,10.8z"/>
<path class="st0" d="M83.9,21.9h0.4h6.2l0,0h1.3c0.5,0,0.9-0.2,1.3-0.5s0.5-0.8,0.5-1.2c0-0.4-0.2-0.8-0.5-1.2s-0.8-0.5-1.3-0.5
	h-7.6h-0.4v-5h8c0.5,0,0.9-0.2,1.3-0.4c0.3-0.3,0.5-0.7,0.5-1.2c0-0.5-0.2-0.9-0.5-1.3c-0.3-0.3-0.8-0.5-1.3-0.5H82
	c-0.5,0-0.9,0.2-1.3,0.5c-0.3,0.3-0.5,0.8-0.5,1.3v17c0,0.5,0.2,0.9,0.5,1.3s0.8,0.5,1.3,0.5h1.9h8c0.5,0,0.9-0.2,1.3-0.5
	s0.5-0.8,0.5-1.2c0-0.4-0.2-0.8-0.5-1.2s-0.8-0.5-1.3-0.5h-8v-2.3L83.9,21.9L83.9,21.9z"/>
<path class="st0" d="M168.8,21.9h0.4h6.2l0,0h1.3c0.5,0,0.9-0.2,1.3-0.5s0.5-0.8,0.5-1.2c0-0.4-0.2-0.8-0.5-1.2
	c-0.3-0.3-0.8-0.5-1.3-0.5h-7.6h-0.4v-5h8c0.5,0,0.9-0.2,1.3-0.4c0.3-0.3,0.5-0.7,0.5-1.2c0-0.5-0.2-0.9-0.5-1.3
	c-0.3-0.3-0.8-0.5-1.3-0.5h-9.8c-0.5,0-0.9,0.2-1.3,0.5c-0.3,0.3-0.5,0.8-0.5,1.3v17c0,0.5,0.2,0.9,0.5,1.3c0.3,0.3,0.8,0.5,1.3,0.5
	h1.9h8c0.5,0,0.9-0.2,1.3-0.5s0.5-0.8,0.5-1.2c0-0.4-0.2-0.8-0.5-1.2c-0.3-0.3-0.8-0.5-1.3-0.5h-8v-2.3L168.8,21.9L168.8,21.9z"/>
<g>
	<g id="XMLID_94_">
		<path id="XMLID_95_" d="M19.4,25.7c-2,0-3.7-1.2-4.5-3H13c-0.7,1.8-2.5,3-4.5,3c-6.3-0.1-6.3-9.5,0-9.6h10.8
			C25.6,16.2,25.7,25.6,19.4,25.7z M12.7,21.7h2.5c0.2,0,0.4,0.1,0.4,0.3c1.2,4.2,7.6,3.2,7.6-1.2c0-2.1-1.7-3.9-3.9-3.9H8.5
			c-5.1,0.1-5.1,7.6,0,7.7c1.7,0,3.2-1.1,3.7-2.7C12.3,21.9,12.5,21.7,12.7,21.7z"/>
	</g>
	<g id="XMLID_89_">
		<g id="XMLID_92_">
			<rect id="XMLID_93_" x="8" y="19.1" width="0.9" height="3.5"/>
		</g>
		<g id="XMLID_90_">
			<rect id="XMLID_91_" x="6.7" y="20.4" width="3.5" height="0.9"/>
		</g>
	</g>
	<g id="XMLID_80_">
		<g id="XMLID_87_">
			<path id="XMLID_88_" class="st1" d="M18.7,20.6c0,1.1-1.7,1.1-1.6,0C17,19.6,18.7,19.6,18.7,20.6z"/>
		</g>
		<g id="XMLID_85_">
			<path id="XMLID_86_" class="st2" d="M21.5,20.6c0,1.1-1.7,1.1-1.6,0C19.9,19.6,21.5,19.6,21.5,20.6z"/>
		</g>
		<g id="XMLID_83_">
			<path id="XMLID_84_" class="st3" d="M19.3,20c-1.1,0-1.1-1.7,0-1.6C20.4,18.4,20.4,20.1,19.3,20z"/>
		</g>
		<g id="XMLID_81_">
			<path id="XMLID_82_" class="st4" d="M19.3,22.9c-1.1,0-1.1-1.7,0-1.6C20.4,21.2,20.4,22.9,19.3,22.9z"/>
		</g>
	</g>
	<g id="XMLID_78_">
		<path id="XMLID_79_" class="st5" d="M14.3,11.9V8.7H2.6v11.7h3.2c0,3.5,5.3,3.5,5.4,0h3.2v-3.2C10.8,17.3,10.8,11.9,14.3,11.9z"/>
	</g>
	<g id="XMLID_72_">
		<path id="XMLID_73_" class="st4" d="M5.8,20.5H2.6v11.7h11.7V29c3.5,0,3.5-5.3,0-5.4v-3.2h-3.2C11.1,24,5.8,24,5.8,20.5z"/>
	</g>
	<g id="XMLID_55_">
		<path id="XMLID_56_" class="st6" d="M14.3,29v3.2H26V20.5h-3.1c0-3.5-5.3-3.5-5.4,0h-3.2v3.2C17.9,23.7,17.8,29,14.3,29z"/>
	</g>
	<g>
		<g id="XMLID_42_">
			<path id="XMLID_44_" class="st3" d="M22.9,20.5h3.2V8.7H14.3v3.2c-3.5,0-3.5,5.3,0,5.4v3.2h3.2C17.5,17,22.9,17,22.9,20.5z"/>
		</g>
		<path d="M26.9,8.7c0-0.4-0.4-0.8-0.8-0.8H14.4l0,0l0,0H2.6c-0.5,0-0.8,0.4-0.8,0.8c0,0,0,10.8,0,11.7l0,0v11.7
			c0,0.4,0.4,0.8,0.8,0.8h11.7l0,0l0,0H26c0.4,0,0.8-0.4,0.8-0.8c0,0,0-10.9,0-11.7l0,0V8.7H26.9z M14.4,12.7c0.2,0,0.4-0.1,0.5-0.3
			c0.1-0.1,0.2-0.3,0.2-0.5V9.5h10.2v10.1c-0.7,0-1.4,0.1-1.7,0c-0.7-3.5-6-3.5-6.8,0c-0.3,0.1-1,0-1.7,0c0-0.4,0-2.3,0-2.3
			c0-0.2-0.1-0.4-0.2-0.5c-0.1-0.1-0.3-0.2-0.5-0.3c-0.5-0.2-1.1-0.2-1.5-0.6c-0.6-0.7-0.6-1.9,0-2.6C13.3,12.9,13.9,12.8,14.4,12.7
			z M3.4,9.5h10.2c0,0.1,0,0.2,0,0.3v1.5c-3.5,0.7-3.5,6,0,6.8v1.6c-0.6,0-1.4,0.1-2.4,0c-1.4,0.1-0.2,2.6-2.7,2.7
			c-2.5-0.1-1.3-2.6-2.7-2.7H3.4V9.5z M13.5,31.4H3.4v-10c0.7,0,1.4-0.1,1.7,0c0.1,0.3,0.2,0.6,0.3,0.8c0,0.1,0.1,0.2,0.1,0.2l0,0
			c0,0.1,0.1,0.1,0.1,0.2c0,0,0,0.1,0.1,0.1l0,0C6.4,23.5,7.4,24,8.4,24c1.2,0,2.2-0.6,2.9-1.5c0,0,0-0.1,0.1-0.1
			c0-0.1,0.1-0.1,0.1-0.2c0,0,0,0,0-0.1c0.1-0.3,0.2-0.5,0.3-0.8c0.3-0.1,1,0,1.7,0c0,0.4,0,2.3,0,2.3c0,0.2,0.1,0.4,0.2,0.5
			c0.1,0.1,0.3,0.2,0.5,0.3c0.5,0.1,1.1,0.2,1.5,0.6c0.6,0.7,0.6,1.9,0,2.6c-0.4,0.4-1,0.5-1.5,0.6c-0.2,0-0.4,0.1-0.5,0.3
			c-0.1,0.1-0.2,0.3-0.2,0.5V31.4z M15.1,31.4c0-0.1,0-0.2,0-0.2v-1.5c3.5-0.7,3.5-6,0-6.8v-1.6c0.6,0,1.4-0.1,2.4,0
			c1.4-0.1,0.2-2.5,2.7-2.7c2.5,0.1,1.3,2.6,2.7,2.7h2.4v10.1C25.3,31.4,15.1,31.4,15.1,31.4z"/>
	</g>
	<path class="st7" d="M24.1,20.4c0-2.4-1.8-4.3-3.9-4.3h-11c-2.2,0-3.9,1.9-3.9,4.3c-0.1,4.8,6.4,5.9,7.7,1.3
		c0.1-0.2,0.2-0.4,0.5-0.4h2.4c0.2,0,0.4,0.1,0.5,0.4C17.7,26.3,24.1,25.1,24.1,20.4z"/>
	<g>
		<g id="XMLID_112_">
			<path id="XMLID_113_" d="M20,25.1c-2,0-3.7-1.2-4.4-3h-1.9c-0.7,1.8-2.5,3-4.4,3C3,25,3,15.7,9.3,15.6H20
				C26.2,15.7,26.3,25,20,25.1z M13.4,21.2h2.5c0.2,0,0.4,0.1,0.4,0.3c1.2,4.1,7.6,3.2,7.5-1.1c0-2.1-1.7-3.8-3.8-3.8H9.3
				c-5,0.1-5,7.6,0,7.7c1.7,0,3.2-1.1,3.7-2.7C13,21.3,13.2,21.2,13.4,21.2z"/>
		</g>
		<g id="XMLID_107_">
			<g id="XMLID_110_">
				<rect id="XMLID_111_" x="8.7" y="18.5" width="0.9" height="3.5"/>
			</g>
			<g id="XMLID_108_">
				<rect id="XMLID_109_" x="7.4" y="19.8" width="3.5" height="0.9"/>
			</g>
		</g>
		<g id="XMLID_98_">
			<g id="XMLID_105_">
				<path id="XMLID_106_" class="st1" d="M19.3,20.1c0,1.1-1.6,1.1-1.6,0S19.4,19,19.3,20.1z"/>
			</g>
			<g id="XMLID_103_">
				<path id="XMLID_104_" class="st2" d="M22.2,20.1c0,1.1-1.6,1.1-1.6,0C20.5,19,22.2,19,22.2,20.1z"/>
			</g>
			<g id="XMLID_101_">
				<path id="XMLID_102_" class="st3" d="M19.9,19.5c-1.1,0-1.1-1.6,0-1.6S21,19.5,19.9,19.5z"/>
			</g>
			<g id="XMLID_99_">
				<path id="XMLID_100_" class="st4" d="M19.9,22.3c-1.1,0-1.1-1.6,0-1.6S21,22.3,19.9,22.3z"/>
			</g>
		</g>
	</g>
</g>
<g>
	<path class="st0" d="M53.8,28.7L46.3,12c-0.3,0.2-0.5,0.3-0.8,0.4l-1.4,3.3l2.7,6.4h-5.5l-1.4,3.4h8.3l2.4,4.4
		c0.2,0.3,0.3,0.7,0.7,0.8c0.3,0.3,0.6,0.3,0.9,0.3c0.4,0,0.8-0.2,1.1-0.5c0.3-0.3,0.5-0.8,0.5-1.3C54,29.1,53.9,28.9,53.8,28.7z"/>
	<path class="st8" d="M37.9,30.1l5.6-12.9l0.6-1.5l1.9-4.5L46,11.1c-0.2-0.3-0.3-0.7-0.7-0.8c-0.3-0.1-0.5-0.3-0.8-0.3h-0.1h-0.1
		c-0.2,0-0.3,0-0.4,0c-0.1,0-0.1,0-0.2,0c-0.2,0.1-0.3,0.1-0.5,0.2c-0.3,0.3-0.6,0.5-0.8,0.9L35,28.8c-0.1,0.2-0.1,0.4-0.1,0.6
		c0,0.4,0.2,0.8,0.4,1.1c0.2,0.3,0.4,0.3,0.8,0.4c0.1,0,0.3,0,0.3,0c0.1,0,0.1,0,0.2,0c0.1,0,0.2,0,0.3,0c0.2-0.1,0.3-0.2,0.5-0.3
		C37.5,30.5,37.7,30.4,37.9,30.1z"/>
</g>
<g>
	<path class="st0" d="M138.7,28.7L131.2,12c-0.3,0.2-0.5,0.3-0.8,0.4l-1.4,3.3l2.7,6.4h-5.4l-1.4,3.4h8.3l2.4,4.4
		c0.2,0.3,0.3,0.7,0.7,0.8c0.3,0.3,0.6,0.3,0.9,0.3c0.4,0,0.8-0.2,1.1-0.5c0.3-0.3,0.5-0.8,0.5-1.3
		C138.8,29.1,138.8,28.9,138.7,28.7z"/>
	<path class="st8" d="M122.8,30.1l5.6-12.9l0.6-1.5l1.9-4.5l-0.1-0.2c-0.2-0.3-0.3-0.7-0.7-0.8c-0.3-0.1-0.5-0.3-0.8-0.3h-0.1h-0.1
		c-0.2,0-0.3,0-0.4,0c-0.1,0-0.1,0-0.2,0c-0.2,0.1-0.3,0.1-0.5,0.2c-0.3,0.3-0.6,0.5-0.8,0.9l-7.5,17.8c-0.1,0.2-0.1,0.4-0.1,0.6
		c0,0.4,0.2,0.8,0.4,1.1c0.2,0.3,0.4,0.3,0.8,0.4c0.1,0,0.3,0,0.3,0c0.1,0,0.1,0,0.2,0c0.1,0,0.2,0,0.3,0c0.2-0.1,0.3-0.2,0.5-0.3
		C122.4,30.5,122.6,30.4,122.8,30.1z"/>
</g>
</svg>
